<?xml version="1.0" encoding="UTF-8" standalone="no"?>
<svg
   xmlns:dc="http://purl.org/dc/elements/1.1/"
   xmlns:cc="http://creativecommons.org/ns#"
   xmlns:rdf="http://www.w3.org/1999/02/22-rdf-syntax-ns#"
   xmlns:svg="http://www.w3.org/2000/svg"
   xmlns="http://www.w3.org/2000/svg"
   viewBox="0 0 533.33331 533.33331"
   height="533.33331"
   width="533.33331"
   xml:space="preserve"
   id="svg2"
   version="1.1"><metadata
     id="metadata8"><rdf:RDF><cc:Work
         rdf:about=""><dc:format>image/svg+xml</dc:format><dc:type
           rdf:resource="http://purl.org/dc/dcmitype/StillImage" /></cc:Work></rdf:RDF></metadata><defs
     id="defs6" /><g
     transform="matrix(1.3333333,0,0,-1.3333333,0,533.33333)"
     id="g10"><g
       transform="scale(0.1)"
       id="g12"><path
         id="path14"
         style="fill:#ffffff;fill-opacity:1;fill-rule:nonzero;stroke:none"
         d="M 4000,0 H 0 V 4000 H 4000 V 0" /><path
         id="path16"
         style="fill:#333333;fill-opacity:1;fill-rule:nonzero;stroke:none"
         d="m 2005.31,3324.1 h -10.63 v 92.68 h 10.63 v -92.68" /><path
         id="path18"
         style="fill:#333333;fill-opacity:1;fill-rule:nonzero;stroke:none"
         d="m 2005.31,583.211 h -10.63 v 92.687 h 10.63 v -92.687" /><path
         id="path20"
         style="fill:#333333;fill-opacity:1;fill-rule:nonzero;stroke:none"
         d="m 1542.14,3242.43 -31.71,87.09 9.99,3.64 31.71,-87.1 -9.99,-3.63" /><path
         id="path22"
         style="fill:#333333;fill-opacity:1;fill-rule:nonzero;stroke:none"
         d="m 2479.57,666.84 -31.7,87.101 9.99,3.641 31.7,-87.102 -9.99,-3.64" /><path
         id="path24"
         style="fill:#333333;fill-opacity:1;fill-rule:nonzero;stroke:none"
         d="m 1144.82,3010.9 -59.58,71 8.13,6.83 59.58,-71 -8.13,-6.83" /><path
         id="path26"
         style="fill:#333333;fill-opacity:1;fill-rule:nonzero;stroke:none"
         d="m 2906.62,911.262 -59.57,71.008 8.14,6.832 59.57,-71 -8.14,-6.84" /><path
         id="path28"
         style="fill:#333333;fill-opacity:1;fill-rule:nonzero;stroke:none"
         d="m 850.641,2657.45 -80.274,46.34 5.313,9.2 80.273,-46.34 -5.312,-9.2" /><path
         id="path30"
         style="fill:#333333;fill-opacity:1;fill-rule:nonzero;stroke:none"
         d="m 3224.31,1287.01 -80.27,46.34 5.32,9.2 80.26,-46.34 -5.31,-9.2" /><path
         id="path32"
         style="fill:#333333;fill-opacity:1;fill-rule:nonzero;stroke:none"
         d="m 695.09,2224.7 -91.277,16.09 1.851,10.46 91.274,-16.09 -1.848,-10.46" /><path
         id="path34"
         style="fill:#333333;fill-opacity:1;fill-rule:nonzero;stroke:none"
         d="m 3394.34,1748.75 -91.29,16.09 1.85,10.46 91.29,-16.09 -1.85,-10.46" /><path
         id="path36"
         style="fill:#333333;fill-opacity:1;fill-rule:nonzero;stroke:none"
         d="m 605.664,1748.75 -1.851,10.46 91.277,16.09 1.848,-10.46 -91.274,-16.09" /><path
         id="path38"
         style="fill:#333333;fill-opacity:1;fill-rule:nonzero;stroke:none"
         d="m 3304.9,2224.7 -1.85,10.46 91.29,16.09 1.85,-10.46 -91.29,-16.09" /><path
         id="path40"
         style="fill:#333333;fill-opacity:1;fill-rule:nonzero;stroke:none"
         d="m 775.68,1287.01 -5.313,9.2 80.274,46.34 5.312,-9.2 -80.273,-46.34" /><path
         id="path42"
         style="fill:#333333;fill-opacity:1;fill-rule:nonzero;stroke:none"
         d="m 3149.36,2657.45 -5.32,9.2 80.27,46.34 5.31,-9.2 -80.26,-46.34" /><path
         id="path44"
         style="fill:#333333;fill-opacity:1;fill-rule:nonzero;stroke:none"
         d="m 1093.37,911.262 -8.13,6.84 59.58,71 8.13,-6.832 -59.58,-71.008" /><path
         id="path46"
         style="fill:#333333;fill-opacity:1;fill-rule:nonzero;stroke:none"
         d="m 2855.19,3010.9 -8.14,6.83 59.57,71 8.14,-6.83 -59.57,-71" /><path
         id="path48"
         style="fill:#333333;fill-opacity:1;fill-rule:nonzero;stroke:none"
         d="m 1520.42,666.84 -9.99,3.64 31.71,87.102 9.99,-3.641 -31.71,-87.101" /><path
         id="path50"
         style="fill:#333333;fill-opacity:1;fill-rule:nonzero;stroke:none"
         d="m 2457.86,3242.43 -9.99,3.63 31.7,87.1 9.99,-3.64 -31.7,-87.09" /><path
         id="path52"
         style="fill:#333333;fill-opacity:1;fill-rule:nonzero;stroke:none"
         d="M 2000,3411.47 C 1221.7,3411.47 588.52,2778.29 588.52,2000 588.52,1221.71 1221.7,588.531 2000,588.531 c 778.28,0 1411.46,633.179 1411.46,1411.469 0,778.29 -633.18,1411.47 -1411.46,1411.47 z m 0,-2833.572 c -784.15,0 -1422.105,637.952 -1422.105,1422.102 0,784.15 637.955,1422.09 1422.105,1422.09 784.13,0 1422.09,-637.94 1422.09,-1422.09 0,-784.15 -637.96,-1422.102 -1422.09,-1422.102" /><path
         id="path54"
         style="fill:#333333;fill-opacity:1;fill-rule:nonzero;stroke:none"
         d="M 2000,3510.64 C 1167.03,3510.64 489.348,2832.97 489.348,2000 489.348,1167.02 1167.03,489.359 2000,489.359 c 832.96,0 1510.63,677.661 1510.63,1510.641 0,832.97 -677.67,1510.64 -1510.63,1510.64 z m 0,-3031.91 c -838.84,0 -1521.277,682.44 -1521.277,1521.27 0,838.83 682.437,1521.27 1521.277,1521.27 838.83,0 1521.26,-682.44 1521.26,-1521.27 0,-838.83 -682.43,-1521.27 -1521.26,-1521.27" /><path
         id="path56"
         style="fill:#333333;fill-opacity:1;fill-rule:nonzero;stroke:none"
         d="M 2000,3706.04 C 1059.29,3706.04 293.961,2940.71 293.961,2000 293.961,1059.29 1059.29,293.961 2000,293.961 c 940.71,0 1706.04,765.329 1706.04,1706.039 0,940.71 -765.33,1706.04 -1706.04,1706.04 z m 0,-3422.708 c -946.58,0 -1716.664,770.098 -1716.664,1716.668 0,946.57 770.084,1716.66 1716.664,1716.66 946.57,0 1716.67,-770.09 1716.67,-1716.66 0,-946.57 -770.1,-1716.668 -1716.67,-1716.668" /><path
         id="path58"
         style="fill:#333333;fill-opacity:1;fill-rule:nonzero;stroke:none"
         d="m 1976.25,3612.87 c 0.44,-26.85 8.96,-41.97 21.67,-41.76 14.29,0.23 20.86,17.03 20.42,43.41 -0.42,25.42 -7.2,42 -21.66,41.76 -12.24,-0.2 -20.88,-15.28 -20.43,-43.41 z m 56.06,2.51 c 0.58,-35.12 -12.13,-54.72 -35.02,-55.09 -20.18,-0.33 -34.16,18.36 -35.03,52.51 -0.57,34.65 14.06,53.95 35.03,54.3 21.78,0.35 34.49,-18.83 35.02,-51.72" /><path
         id="path60"
         style="fill:#333333;fill-opacity:1;fill-rule:nonzero;stroke:none"
         d="m 2468.05,3491.11 2.73,8.13 13.81,6.59 c 33.04,15.38 48.6,24.23 53.74,38.94 3.35,9.94 1.63,20.76 -12.99,25.69 -8.88,3 -17.79,0.97 -23.59,-1.28 l -1.07,10.77 c 8.71,3.44 19.79,4.41 31.08,0.59 21.1,-7.11 25.11,-24.57 20.39,-38.59 -6.11,-18.08 -24.14,-28.27 -51.49,-41.2 l -10.27,-4.59 -0.1,-0.3 44,-14.84 -3.7,-11 -62.54,21.09" /><path
         id="path62"
         style="fill:#333333;fill-opacity:1;fill-rule:nonzero;stroke:none"
         d="m 2574.82,3507.92 c -9.9,-24.96 -7.84,-42.18 3.97,-46.86 13.29,-5.28 25.78,7.71 35.51,32.22 9.38,23.62 9.48,41.53 -3.96,46.86 -11.37,4.51 -25.14,-6.09 -35.52,-32.22 z m 52.71,-19.21 c -12.94,-32.62 -32.2,-45.84 -53.47,-37.4 -18.74,7.44 -24.47,30.04 -12.17,61.91 12.77,32.19 33.68,44.4 53.17,36.66 20.23,-8.02 24.6,-30.6 12.47,-61.17" /><path
         id="path64"
         style="fill:#333333;fill-opacity:1;fill-rule:nonzero;stroke:none"
         d="m 2991.88,3257.09 21.21,27.21 c 3.32,4.27 6.76,8.43 10.34,12.5 l -0.38,0.29 c -6.22,-2.81 -10.96,-4.76 -16.15,-6.76 l -41.53,-12.18 -0.19,-0.24 z m -24.03,-30.84 17.3,22.19 -37.87,29.51 5.67,7.27 76.91,23.7 11.91,-9.29 -39.48,-50.65 11.41,-8.89 -6.74,-8.65 -11.41,8.89 -17.3,-22.19 -10.4,8.11" /><path
         id="path66"
         style="fill:#333333;fill-opacity:1;fill-rule:nonzero;stroke:none"
         d="m 3039.59,3233.84 c -17.58,-20.32 -21.31,-37.26 -11.7,-45.58 10.82,-9.35 26.91,-1.21 44.18,18.75 16.63,19.22 22.63,36.1 11.68,45.57 -9.24,8.01 -25.75,2.53 -44.16,-18.74 z m 43.47,-35.5 c -22.98,-26.57 -45.52,-32.7 -62.84,-17.73 -15.25,13.2 -13.22,36.44 8.89,62.5 22.68,26.21 46.45,30.85 62.32,17.13 16.46,-14.26 13.16,-37.03 -8.37,-61.9" /><path
         id="path68"
         style="fill:#333333;fill-opacity:1;fill-rule:nonzero;stroke:none"
         d="m 3370.74,2818.1 c 12.58,7.76 15.73,19.6 8.99,30.57 -4.44,7.17 -12.98,11.04 -21.35,10.37 -1.86,-0.02 -3.95,-0.56 -6.1,-1.9 -14.33,-9.2 -20.92,-22.42 -13.25,-34.87 6.34,-10.29 19.12,-11.93 31.71,-4.17 z m 52.83,27.91 c -1.35,2.52 -3.41,5.55 -6.05,8.6 -14.62,16.75 -34.38,18.21 -50.11,11.3 l 0.25,-0.4 c 8.13,-0.77 17.24,-5.24 23.25,-14.99 9.6,-15.56 5.13,-33.45 -12.07,-44.05 -16.11,-9.93 -37.75,-8.14 -49.01,10.13 -11.61,18.81 -4.58,40.13 18.3,54.24 17.32,10.68 34.82,12.88 48.82,9.56 11.67,-2.89 22.15,-9.88 30.35,-20.14 2.72,-3.18 4.68,-6.08 6.02,-8.25 l -9.75,-6" /><path
         id="path70"
         style="fill:#333333;fill-opacity:1;fill-rule:nonzero;stroke:none"
         d="m 3405.75,2792.29 c -23.56,-12.9 -32.99,-27.48 -26.88,-38.63 6.87,-12.55 24.79,-10.54 47.94,2.13 22.31,12.21 33.82,25.94 26.88,38.63 -5.88,10.74 -23.26,11.38 -47.94,-2.13 z m 28.33,-48.46 c -30.81,-16.86 -54.08,-14.74 -65.07,5.34 -9.69,17.7 0.34,38.78 30.17,55.46 30.39,16.64 54.31,12.69 64.37,-5.71 10.45,-19.11 -0.6,-39.3 -29.47,-55.09" /><path
         id="path72"
         style="fill:#333333;fill-opacity:1;fill-rule:nonzero;stroke:none"
         d="m 3606.52,2334.17 c -10.14,-1.98 -14.1,-10.68 -14.93,-22.98 4.66,-8.15 12.22,-13.64 21.41,-11.84 8.1,1.59 15.57,8.07 13.16,20.38 -2.22,11.38 -10.91,16.15 -19.64,14.44 z m -43.29,-47.62 c 12.31,2.41 16.56,12.14 17.78,26.61 -5.75,11.18 -14.79,16.05 -24.45,14.15 -10.38,-1.54 -17.91,-11.1 -15.37,-24.04 2.4,-12.31 11.6,-18.76 22.04,-16.72 z m -11.3,54.43 c 12.8,2.5 23.32,-3.37 31.07,-14.8 l 0.43,0.24 c 3.11,12.26 10.89,18.8 19.62,20.5 16.06,3.14 29.62,-8.28 33.09,-26.05 3.85,-19.64 -6.56,-31.87 -19.18,-34.34 -8.57,-1.67 -18.59,0.74 -26.95,12.04 l -0.47,-0.08 c -2.52,-13.6 -9.87,-23.13 -22.19,-25.55 -17.61,-3.43 -32.42,9.36 -36.2,28.7 -4.15,21.19 5.98,36.45 20.78,39.34" /><path
         id="path74"
         style="fill:#333333;fill-opacity:1;fill-rule:nonzero;stroke:none"
         d="m 3594.04,2250.52 c -26.59,-3.8 -40.53,-14.14 -38.74,-26.73 2.03,-14.17 19.52,-18.57 45.65,-14.84 25.17,3.59 40.78,12.41 38.74,26.73 -1.73,12.12 -17.79,18.82 -45.65,14.84 z m 9.51,-55.33 c -34.77,-4.97 -55.82,5.2 -59.06,27.86 -2.86,19.98 13.94,36.19 47.74,41.34 34.29,4.9 55.3,-7.19 58.28,-27.96 3.06,-21.57 -14.38,-36.59 -46.96,-41.24" /><path
         id="path76"
         style="fill:#333333;fill-opacity:1;fill-rule:nonzero;stroke:none"
         d="m 3640.85,1804.53 0.04,0.31 -7.47,19.01 10.89,1.39 9.29,-23.85 -1.42,-11.83 -102.58,12.36 1.62,13.41 89.63,-10.8" /><path
         id="path78"
         style="fill:#333333;fill-opacity:1;fill-rule:nonzero;stroke:none"
         d="m 3593.19,1744.63 c -26.43,4.57 -42.87,-0.97 -45.03,-13.49 -2.44,-14.08 12.84,-23.66 38.82,-28.14 25.05,-4.33 42.59,-0.74 45.04,13.49 2.09,12.06 -11.11,23.37 -38.83,28.14 z m -7.97,-55.51 c -34.59,5.97 -51.46,22.1 -47.57,44.64 3.42,19.88 24.39,30.12 58.09,24.63 34.12,-5.9 50.36,-23.86 46.8,-44.51 -3.71,-21.45 -24.91,-30.35 -57.32,-24.76" /><path
         id="path80"
         style="fill:#333333;fill-opacity:1;fill-rule:nonzero;stroke:none"
         d="m 3578.09,1663.03 c -26.21,5.93 -42.9,1.22 -45.7,-11.18 -3.15,-13.96 11.6,-24.29 37.34,-30.1 24.79,-5.61 42.52,-2.94 45.7,11.17 2.7,11.93 -9.92,23.92 -37.34,30.11 z m -10.82,-55.07 c -34.26,7.73 -50.3,24.73 -45.26,47.05 4.45,19.69 25.92,28.85 59.3,21.62 33.8,-7.64 49.1,-26.42 44.48,-46.86 -4.79,-21.23 -26.43,-29.06 -58.52,-21.81" /><path
         id="path82"
         style="fill:#333333;fill-opacity:1;fill-rule:nonzero;stroke:none"
         d="m 3461.98,1229.57 0.14,0.27 -0.13,20.41 10.67,-2.61 0.06,-25.58 -5.58,-10.54 -91.19,48.49 6.34,11.92 79.69,-42.36" /><path
         id="path84"
         style="fill:#333333;fill-opacity:1;fill-rule:nonzero;stroke:none"
         d="m 3358.64,1227.99 7.36,-4.4 3.51,-14.87 c 8.03,-35.52 13.38,-52.59 26.66,-60.73 9.02,-5.36 19.94,-5.98 27.84,7.25 4.82,8.05 4.72,17.19 3.75,23.31 l 10.74,-1.23 c 1.52,-9.23 0.12,-20.25 -5.99,-30.47 -11.42,-19.12 -29.32,-19.33 -42.01,-11.75 -16.37,9.78 -22.51,29.55 -29.35,58.99 l -2.3,11.02 -0.29,0.16 -23.78,-39.83 -9.97,5.95 33.83,56.6" /><path
         id="path86"
         style="fill:#333333;fill-opacity:1;fill-rule:nonzero;stroke:none"
         d="m 3352.81,1120.6 c -22.33,14.94 -39.61,16.56 -46.68,6 -7.96,-11.88 2.12,-26.85 24.04,-41.53 21.14,-14.14 38.62,-18.02 46.68,-6 6.8,10.18 -0.67,25.88 -24.04,41.53 z m -29.9,-47.51 c -29.19,19.55 -38.05,41.16 -25.31,60.18 11.23,16.77 34.54,17.62 63.13,-1.13 28.79,-19.28 36.33,-42.3 24.65,-59.73 -12.1,-18.1 -35.13,-17.62 -62.47,0.68" /><path
         id="path88"
         style="fill:#333333;fill-opacity:1;fill-rule:nonzero;stroke:none"
         d="m 3115.22,780.93 0.24,0.199 6.74,19.269 9.16,-6.039 -8.54,-24.129 -8.8,-8.031 -69.55,76.301 9.97,9.109 60.78,-66.679" /><path
         id="path90"
         style="fill:#333333;fill-opacity:1;fill-rule:nonzero;stroke:none"
         d="m 3008.76,756.551 21.9,-26.653 c 3.43,-4.179 6.74,-8.449 9.94,-12.816 l 0.36,0.297 c -1.37,6.68 -2.25,11.73 -3.06,17.242 l -2.78,43.18 -0.21,0.258 z m -24.83,30.211 17.86,-21.742 37.08,30.5 5.87,-7.129 6.28,-80.243 -11.67,-9.589 -40.79,49.601 -11.18,-9.18 -6.96,8.469 11.18,9.18 -17.87,21.742 10.2,8.391" /><path
         id="path92"
         style="fill:#333333;fill-opacity:1;fill-rule:nonzero;stroke:none"
         d="m 2975.36,714.852 c -15.97,21.589 -31.69,28.949 -41.91,21.386 -11.5,-8.508 -7.07,-25.988 8.61,-47.199 15.12,-20.449 30.28,-29.98 41.9,-21.379 9.84,7.27 8.11,24.57 -8.6,47.192 z m -44.17,-34.641 c -20.87,28.25 -21.92,51.578 -3.52,65.187 16.23,11.993 38.46,4.911 59.02,-22.367 20.6,-27.851 19.92,-52.062 3.06,-64.531 -17.5,-12.941 -38.99,-4.719 -58.56,21.711" /><path
         id="path94"
         style="fill:#333333;fill-opacity:1;fill-rule:nonzero;stroke:none"
         d="m 2637.17,475.109 0.29,0.11 12.87,15.851 6.58,-8.789 -16.21,-19.82 -11.01,-4.582 -39.63,95.422 12.48,5.179 34.63,-83.371" /><path
         id="path96"
         style="fill:#333333;fill-opacity:1;fill-rule:nonzero;stroke:none"
         d="m 2516.02,489.301 c 4.96,-13.922 15.87,-19.469 27.99,-15.141 7.93,2.84 13.51,10.379 14.58,18.692 0.37,1.828 0.27,3.988 -0.57,6.39 -6.02,15.887 -17.57,25.098 -31.34,20.18 -11.36,-4.07 -15.64,-16.223 -10.66,-30.121 z m 16.27,-57.43 c 2.76,0.801 6.15,2.18 9.66,4.117 19.43,10.813 24.95,29.821 21.49,46.633 l -0.45,-0.172 c -2.45,-7.789 -8.71,-15.758 -19.48,-19.609 -17.2,-6.141 -33.76,1.949 -40.54,20.949 -6.36,17.813 -0.12,38.59 20.09,45.801 20.79,7.43 40.17,-3.879 49.2,-29.149 6.83,-19.152 5.34,-36.722 -0.82,-49.722 -5.25,-10.797 -14.25,-19.59 -25.98,-25.469 -3.68,-1.98 -6.92,-3.309 -9.32,-4.16 l -3.85,10.781" /><path
         id="path98"
         style="fill:#333333;fill-opacity:1;fill-rule:nonzero;stroke:none"
         d="m 2483.33,460.379 c -7.71,25.723 -20,37.973 -32.18,34.32 -13.7,-4.109 -15.46,-22.039 -7.89,-47.308 7.31,-24.352 18.33,-38.461 32.19,-34.309 11.72,3.508 15.95,20.367 7.88,47.297 z m -53.26,-17.629 c -10.09,33.641 -3.18,55.961 18.74,62.512 19.33,5.797 37.84,-8.383 47.96,-41.02 9.95,-33.183 1.1,-55.722 -18.99,-61.754 -20.85,-6.238 -38.28,8.762 -47.71,40.262" /><path
         id="path100"
         style="fill:#333333;fill-opacity:1;fill-rule:nonzero;stroke:none"
         d="m 2083.61,349.891 0.33,0.007 17.47,10.532 3.2,-10.5 -21.96,-13.129 -11.9,-0.571 -4.91,103.141 13.48,0.649 4.29,-90.129" /><path
         id="path102"
         style="fill:#333333;fill-opacity:1;fill-rule:nonzero;stroke:none"
         d="m 2012.67,359.27 c 0.16,10.32 -7.53,16.019 -19.4,19.378 -8.94,-2.859 -15.88,-9.109 -16.04,-18.476 -0.12,-8.281 4.65,-16.922 17.21,-17.133 11.6,-0.187 18.07,7.332 18.23,16.231 z m -37.61,52.269 c -0.21,-12.559 8.43,-18.73 22.35,-22.937 12.13,3.308 18.78,11.136 18.94,20.988 0.65,10.48 -7.14,19.82 -20.34,20.051 -12.55,0.191 -20.79,-7.461 -20.95,-18.102 z m 55.62,-0.269 c -0.21,-13.04 -8.15,-22.129 -20.95,-27.309 l 0.16,-0.492 c 11.34,-5.59 16.13,-14.571 15.98,-23.469 -0.26,-16.371 -14.27,-27.262 -32.39,-26.961 -20.02,0.332 -29.82,13.043 -29.61,25.922 0.13,8.738 4.58,18.027 17.39,23.867 l 0.01,0.473 c -12.78,5.301 -20.59,14.488 -20.38,27.039 0.29,17.961 15.9,29.781 35.6,29.449 21.62,-0.34 34.44,-13.43 34.19,-28.519" /><path
         id="path104"
         style="fill:#333333;fill-opacity:1;fill-rule:nonzero;stroke:none"
         d="m 1934.22,388.07 c 1.42,26.801 -6.01,42.489 -18.71,43.149 -14.27,0.761 -21.98,-15.539 -23.38,-41.879 -1.36,-25.391 4.26,-42.399 18.7,-43.16 12.22,-0.649 21.91,13.8 23.39,41.89 z m -56.09,1.371 c 1.87,35.079 15.89,53.739 38.75,52.52 20.15,-1.063 32.79,-20.66 31.3,-54.789 -1.84,-34.613 -17.76,-52.863 -38.71,-51.742 -21.74,1.148 -33.08,21.172 -31.34,54.011" /><path
         id="path106"
         style="fill:#333333;fill-opacity:1;fill-rule:nonzero;stroke:none"
         d="m 1576.01,495.891 -2.49,-8.2 -13.59,-7 c -32.54,-16.32 -47.82,-25.621 -52.5,-40.472 -3.06,-10.02 -1.01,-20.778 13.72,-25.278 8.97,-2.722 17.81,-0.421 23.52,1.981 l 1.38,-10.723 c -8.59,-3.687 -19.61,-4.98 -31.02,-1.5 -21.26,6.473 -25.8,23.781 -21.49,37.922 5.56,18.231 23.27,28.949 50.19,42.68 l 10.13,4.89 0.08,0.301 -44.37,13.496 3.37,11.102 63.07,-19.199" /><path
         id="path108"
         style="fill:#333333;fill-opacity:1;fill-rule:nonzero;stroke:none"
         d="m 1470.05,475.82 c 9.18,25.239 6.62,42.41 -5.33,46.762 -13.46,4.879 -25.57,-8.473 -34.58,-33.281 -8.68,-23.903 -8.25,-41.813 5.34,-46.75 11.51,-4.18 24.97,6.828 34.57,33.269 z m -53.26,17.66 c 11.98,33.008 30.85,46.79 52.37,38.969 18.97,-6.879 25.36,-29.328 13.98,-61.551 -11.83,-32.566 -32.37,-45.398 -52.09,-38.226 -20.47,7.43 -25.5,29.887 -14.26,60.808" /><path
         id="path110"
         style="fill:#333333;fill-opacity:1;fill-rule:nonzero;stroke:none"
         d="m 1392.63,505.031 c 10.45,24.739 8.77,42.008 -2.93,46.938 -13.18,5.57 -25.96,-7.137 -36.22,-31.43 -9.9,-23.418 -10.38,-41.328 2.93,-46.949 11.28,-4.75 25.27,5.539 36.22,31.441 z m -52.28,20.367 c 13.66,32.332 33.21,45.133 54.29,36.223 18.58,-7.859 23.81,-30.59 10.81,-62.18 -13.48,-31.902 -34.65,-43.652 -53.98,-35.48 -20.05,8.461 -23.92,31.141 -11.12,61.437" /><path
         id="path112"
         style="fill:#333333;fill-opacity:1;fill-rule:nonzero;stroke:none"
         d="m 1065.86,747.621 -5.29,-6.769 -15.2,-1.633 c -36.25,-3.52 -53.866,-6.688 -63.577,-18.86 -6.477,-8.257 -8.441,-19.027 3.703,-28.527 7.375,-5.781 16.454,-6.82 22.654,-6.621 l -2.56,-10.512 c -9.356,-0.34 -20.106,2.41 -29.5,9.75 -17.516,13.711 -15.508,31.512 -6.395,43.16 11.75,15.012 32.145,18.629 62.205,21.743 l 11.23,0.918 0.19,0.25 -36.56,28.601 7.16,9.129 51.94,-40.629" /><path
         id="path114"
         style="fill:#333333;fill-opacity:1;fill-rule:nonzero;stroke:none"
         d="m 1002.78,797.309 -5.632,-6.469 -15.257,-0.86 c -36.395,-1.66 -54.141,-3.921 -64.465,-15.582 -6.875,-7.918 -9.395,-18.566 2.242,-28.668 7.086,-6.16 16.078,-7.66 22.289,-7.789 l -3.102,-10.339 c -9.363,0.109 -19.964,3.429 -28.953,11.238 -16.797,14.59 -13.882,32.25 -4.179,43.422 12.496,14.386 33.039,16.957 63.242,18.519 l 11.234,0.348 0.207,0.242 -35.031,30.418 7.609,8.762 49.796,-43.242" /><path
         id="path116"
         style="fill:#333333;fill-opacity:1;fill-rule:nonzero;stroke:none"
         d="m 897.859,821.922 c 18.61,19.359 23.204,36.09 14.043,44.887 -10.304,9.91 -26.797,2.601 -45.062,-16.411 -17.598,-18.328 -24.457,-34.878 -14.027,-44.898 8.812,-8.469 25.585,-3.859 45.046,16.422 z m -41.531,37.687 c 24.313,25.321 47.141,30.289 63.633,14.43 14.551,-13.969 11.312,-37.059 -12.125,-61.918 -23.988,-24.98 -47.953,-28.383 -63.074,-13.859 -15.703,15.07 -11.223,37.636 11.566,61.347" /><path
         id="path118"
         style="fill:#333333;fill-opacity:1;fill-rule:nonzero;stroke:none"
         d="m 715.688,1110.18 -7.153,-4.75 -14.941,3.27 c -35.504,8.14 -53.227,10.69 -66.305,2.23 -8.742,-5.78 -14.012,-15.39 -5.508,-28.24 5.192,-7.82 13.461,-11.67 19.414,-13.46 l -5.769,-9.15 c -8.981,2.63 -18.309,8.65 -24.891,18.58 -12.289,18.56 -4.742,34.8 7.578,42.96 15.903,10.55 36.395,7.53 65.918,0.96 l 10.914,-2.69 0.266,0.18 -25.625,38.7 9.672,6.41 36.43,-55" /><path
         id="path120"
         style="fill:#333333;fill-opacity:1;fill-rule:nonzero;stroke:none"
         d="m 615.934,1194.63 -29.707,-17.54 c -4.649,-2.75 -9.379,-5.37 -14.196,-7.84 l 0.25,-0.4 c 6.805,0.33 11.938,0.4 17.5,0.37 l 43.102,-3.91 0.262,0.17 z m 33.66,19.88 -24.227,-14.3 24.422,-41.33 -7.941,-4.69 -80.239,6.13 -7.671,13.01 55.281,32.67 -7.36,12.45 9.442,5.57 7.355,-12.45 24.231,14.31 6.707,-11.37" /><path
         id="path122"
         style="fill:#333333;fill-opacity:1;fill-rule:nonzero;stroke:none"
         d="m 579.887,1233.95 c 23.785,12.45 33.472,26.85 27.562,38.09 -6.625,12.68 -24.574,10.99 -47.941,-1.26 -22.512,-11.79 -34.27,-25.3 -27.559,-38.09 5.672,-10.85 23.035,-11.79 47.938,1.26 z m -27.422,48.93 c 31.105,16.3 54.32,13.75 64.933,-6.52 9.356,-17.87 -1.05,-38.75 -31.16,-54.89 -30.687,-16.06 -54.496,-11.68 -64.222,6.9 -10.102,19.29 1.312,39.25 30.449,54.51" /><path
         id="path124"
         style="fill:#333333;fill-opacity:1;fill-rule:nonzero;stroke:none"
         d="m 490.152,1596.93 -8.332,-2.03 -12.933,8.14 c -30.633,19.67 -46.422,28.1 -61.586,24.56 -10.184,-2.48 -18.399,-9.72 -14.746,-24.69 2.211,-9.1 8.683,-15.54 13.679,-19.23 l -8.519,-6.65 c -7.555,5.52 -14.293,14.33 -17.113,25.91 -5.258,21.61 7.328,34.33 21.695,37.83 18.523,4.51 36.758,-5.27 62.281,-21.44 l 9.371,-6.23 0.321,0.08 -10.989,45.06 11.266,2.76 15.605,-64.07" /><path
         id="path126"
         style="fill:#333333;fill-opacity:1;fill-rule:nonzero;stroke:none"
         d="m 428.059,1722.62 c -14.52,-2.76 -21.696,-12.69 -19.289,-25.33 1.562,-8.28 8.164,-14.95 16.214,-17.3 1.746,-0.63 3.887,-0.87 6.379,-0.4 16.645,3.48 27.532,13.47 24.809,27.82 -2.254,11.88 -13.606,17.96 -28.113,15.21 z m -59.274,-7.21 c 0.371,-2.83 1.215,-6.39 2.57,-10.19 7.676,-20.85 25.614,-29.25 42.754,-28.42 l -0.082,0.47 c -7.316,3.62 -14.222,11.04 -16.371,22.29 -3.402,17.94 7.153,33.04 26.985,36.8 18.566,3.52 38.14,-5.85 42.14,-26.93 4.11,-21.69 -10.043,-39.1 -36.429,-44.11 -19.981,-3.79 -37.106,0.41 -48.997,8.5 -9.863,6.86 -17.152,17.12 -21.136,29.63 -1.395,3.93 -2.199,7.34 -2.668,9.83 l 11.234,2.13" /><path
         id="path128"
         style="fill:#333333;fill-opacity:1;fill-rule:nonzero;stroke:none"
         d="m 404.605,1759.3 c 26.59,3.62 40.594,13.86 38.875,26.45 -1.921,14.17 -19.371,18.68 -45.492,15.14 -25.179,-3.43 -40.824,-12.13 -38.89,-26.46 1.644,-12.12 17.64,-18.91 45.507,-15.13 z m -9.132,55.34 c 34.781,4.73 55.726,-5.56 58.812,-28.22 2.727,-19.98 -14.164,-36.07 -47.969,-40.98 -34.296,-4.67 -55.203,7.55 -58.023,28.33 -2.934,21.56 14.598,36.44 47.18,40.87" /><path
         id="path130"
         style="fill:#333333;fill-opacity:1;fill-rule:nonzero;stroke:none"
         d="m 446.207,2164.41 -8.508,1.07 -9.187,12.21 c -21.598,29.31 -33.344,42.8 -48.77,44.9 -10.406,1.32 -20.66,-2.51 -22.578,-17.8 -1.18,-9.3 2.57,-17.62 5.918,-22.84 l -10.316,-3.19 c -5.11,7.86 -8.25,18.5 -6.754,30.32 2.777,22.06 19.09,29.45 33.746,27.6 18.91,-2.38 32.469,-18.03 50.539,-42.25 l 6.527,-9.14 0.321,-0.04 5.816,46.01 11.508,-1.45 -8.262,-65.4" /><path
         id="path132"
         style="fill:#333333;fill-opacity:1;fill-rule:nonzero;stroke:none"
         d="m 439.773,2302.33 c -12.367,2.22 -19.851,-5.32 -26.242,-18.38 1.313,-12.52 7.977,-20.34 17.68,-22.09 10.25,-2.32 20.738,3.88 23.062,16.87 2.231,12.36 -4.007,21.72 -14.5,23.6 z m -57.668,-28.74 c 10.168,-1.83 17.036,4.86 22.266,16.03 -1.398,9.31 -6.449,17.16 -15.68,18.82 -8.148,1.46 -17.476,-1.87 -19.687,-14.24 -2.047,-11.43 4.332,-19.03 13.101,-20.61 z m 48.458,-26.15 c -12.829,2.31 -20.536,11.61 -23.606,25.08 l -0.496,-0.06 c -7.352,-10.32 -16.981,-13.6 -25.754,-12.03 -16.117,2.9 -24.621,18.48 -21.43,36.33 3.543,19.71 17.68,27.36 30.356,25.08 8.621,-1.55 17.086,-7.43 20.781,-21.02 l 0.469,-0.09 c 7.297,11.78 17.613,18.01 29.984,15.79 17.684,-3.18 26.86,-20.49 23.371,-39.9 -3.824,-21.29 -18.804,-31.85 -33.675,-29.18" /><path
         id="path134"
         style="fill:#333333;fill-opacity:1;fill-rule:nonzero;stroke:none"
         d="m 424.098,2346.87 c 26.168,-6.11 42.89,-1.53 45.785,10.85 3.254,13.94 -11.461,24.38 -37.149,30.38 -24.769,5.78 -42.492,3.22 -45.785,-10.87 -2.777,-11.92 9.754,-23.97 37.149,-30.36 z m 11.195,54.99 c 34.215,-7.98 50.141,-25.07 44.937,-47.36 -4.593,-19.66 -26.109,-28.67 -59.468,-21.22 -33.746,7.87 -48.922,26.75 -44.16,47.18 4.953,21.21 26.644,28.88 58.691,21.4" /><path
         id="path136"
         style="fill:#333333;fill-opacity:1;fill-rule:nonzero;stroke:none"
         d="m 580.293,2690.45 c 4.078,2.39 11.812,8.79 16.227,17.43 8.191,16 0.527,26.17 -7.196,29.94 -12.945,6.45 -24.418,-2.34 -30.574,-14.37 l -3.547,-6.95 -9.336,4.78 3.543,6.95 c 4.633,9.06 5.824,22.91 -5.078,28.49 -7.359,3.77 -16.258,2.43 -22.125,-9.04 -3.773,-7.37 -4.137,-16.11 -3.336,-21.52 l -10.723,1.37 c -1.078,6.63 0.153,17.78 5.231,27.69 9.273,18.13 24.226,20.84 35.422,15.11 9.492,-4.85 14.652,-14.63 12.976,-28.07 l 0.278,-0.14 c 8.066,10.17 21.265,15.03 34.144,8.44 14.739,-7.54 21.75,-25.59 10.446,-47.68 -5.282,-10.34 -13.168,-17.74 -18.465,-20.75 l -7.887,8.32" /><path
         id="path138"
         style="fill:#333333;fill-opacity:1;fill-rule:nonzero;stroke:none"
         d="m 591.938,2787.97 c 23.234,-13.44 40.566,-13.93 46.933,-2.93 7.168,12.38 -3.848,26.64 -26.676,39.85 -22,12.73 -39.695,15.45 -46.929,2.93 -6.129,-10.58 2.336,-25.76 26.672,-39.85 z m 26.707,49.33 c 30.382,-17.57 40.632,-38.55 29.175,-58.35 -10.093,-17.47 -33.3,-19.82 -63.019,-2.99 -29.965,17.34 -38.988,39.81 -28.488,57.97 10.89,18.83 33.875,19.85 62.332,3.37" /><path
         id="path140"
         style="fill:#333333;fill-opacity:1;fill-rule:nonzero;stroke:none"
         d="m 634.156,2859.05 c 22.547,-14.62 39.844,-15.98 46.762,-5.31 7.789,12.01 -2.504,26.82 -24.645,41.17 -21.347,13.84 -38.89,17.45 -46.761,5.31 -6.657,-10.27 1.039,-25.87 24.644,-41.17 z m 29.188,47.95 c 29.488,-19.11 38.672,-40.6 26.222,-59.81 -10.988,-16.94 -34.296,-18.12 -63.144,0.21 -29.086,18.85 -36.957,41.77 -25.543,59.37 11.84,18.27 34.863,18.13 62.465,0.23" /><path
         id="path142"
         style="fill:#333333;fill-opacity:1;fill-rule:nonzero;stroke:none"
         d="m 897.809,3129.75 c 4.632,0.86 14.07,4.27 21.14,10.9 13.086,12.3 9.328,24.44 3.336,30.59 -10.019,10.44 -23.762,6.04 -33.609,-3.2 l -5.672,-5.33 -7.184,7.65 5.672,5.32 c 7.418,6.96 13.215,19.59 4.848,28.52 -5.649,6.02 -14.477,7.76 -23.867,-1.04 -6.024,-5.66 -9.313,-13.76 -10.395,-19.12 l -9.613,4.91 c 1.219,6.6 6.144,16.67 14.265,24.28 14.833,13.92 29.813,11.42 38.407,2.27 7.281,-7.77 8.843,-18.72 2.722,-30.78 l 0.227,-0.23 c 10.996,6.85 25.055,6.96 34.961,-3.59 11.305,-12.05 11.816,-31.4 -6.266,-48.36 -8.457,-7.94 -18.375,-12.24 -24.363,-13.28 l -4.609,10.49" /><path
         id="path144"
         style="fill:#333333;fill-opacity:1;fill-rule:nonzero;stroke:none"
         d="m 965.078,3170.46 -5.547,6.56 1.481,15.2 c 3.914,36.21 4.383,54.1 -5.563,66.09 -6.781,8 -16.926,12.12 -28.679,2.16 -7.157,-6.07 -10.024,-14.73 -11.086,-20.84 l -9.77,4.64 c 1.551,9.23 6.449,19.2 15.539,26.9 16.977,14.37 33.996,8.79 43.543,-2.49 12.328,-14.55 11.734,-35.25 8.672,-65.32 l -1.383,-11.17 0.211,-0.24 35.424,29.98 7.48,-8.85 -50.322,-42.62" /><path
         id="path146"
         style="fill:#333333;fill-opacity:1;fill-rule:nonzero;stroke:none"
         d="m 1005.49,3270.41 c 16.3,-21.33 32.13,-28.44 42.23,-20.73 11.36,8.68 6.66,26.08 -9.34,47.04 -15.43,20.21 -30.73,29.51 -42.228,20.73 -9.711,-7.43 -7.718,-24.69 9.338,-47.04 z m 43.61,35.3 c 21.31,-27.9 22.72,-51.21 4.54,-65.09 -16.04,-12.25 -38.37,-5.51 -59.359,21.43 -21.015,27.52 -20.707,51.74 -4.051,64.47 17.29,13.21 38.91,5.33 58.87,-20.81" /><path
         id="path148"
         style="fill:#333333;fill-opacity:1;fill-rule:nonzero;stroke:none"
         d="m 1344.75,3436.35 c 4.64,-0.74 14.69,-0.71 23.57,3.15 16.47,7.16 17.01,19.86 13.44,27.67 -5.91,13.2 -20.33,13.69 -32.71,8.3 l -7.14,-3.1 -4.18,9.61 7.14,3.1 c 9.32,4.06 19.04,14 14.15,25.22 -3.29,7.58 -11.01,12.19 -22.81,7.06 -7.58,-3.3 -13.41,-9.82 -16.22,-14.5 l -7.4,7.87 c 3.36,5.79 11.4,13.61 21.6,18.05 18.65,8.11 31.92,0.71 36.91,-10.8 4.25,-9.76 2.03,-20.6 -7.79,-29.9 l 0.13,-0.29 c 12.67,2.74 25.94,-1.89 31.71,-15.15 6.58,-15.15 0.55,-33.54 -22.18,-43.43 -10.64,-4.62 -21.42,-5.32 -27.42,-4.28 l -0.8,11.42" /><path
         id="path150"
         style="fill:#333333;fill-opacity:1;fill-rule:nonzero;stroke:none"
         d="m 1448.8,3503.73 -12.05,32.32 c -1.89,5.07 -3.63,10.18 -5.23,15.36 l -0.44,-0.16 c -0.87,-6.78 -1.69,-11.83 -2.71,-17.3 l -11.4,-41.75 0.11,-0.3 z m 13.68,-36.64 -9.84,26.36 -44.98,-16.77 -3.23,8.63 20.15,77.93 14.14,5.28 22.45,-60.18 13.55,5.06 3.83,-10.28 -13.55,-5.05 9.84,-26.37 -12.36,-4.61" /><path
         id="path152"
         style="fill:#333333;fill-opacity:1;fill-rule:nonzero;stroke:none"
         d="m 1493.78,3532.29 c 8.07,-25.61 20.54,-37.68 32.66,-33.85 13.64,4.3 15.15,22.26 7.2,47.42 -7.63,24.25 -18.87,38.2 -32.65,33.85 -11.67,-3.67 -15.67,-20.59 -7.21,-47.42 z m 53.01,18.39 c 10.57,-33.5 3.97,-55.91 -17.86,-62.78 -19.25,-6.08 -37.95,7.85 -48.54,40.34 -10.42,33.04 -1.89,55.72 18.1,62.01 20.76,6.56 38.42,-8.2 48.3,-39.57" /><path
         id="path154"
         style="fill:#333333;fill-opacity:1;fill-rule:nonzero;stroke:none"
         d="m 2005.31,3416.78 h -10.63 v 99.18 h 10.63 v -99.18" /><path
         id="path156"
         style="fill:#333333;fill-opacity:1;fill-rule:nonzero;stroke:none"
         d="m 2005.31,484.039 h -10.63 v 99.172 h 10.63 v -99.172" /><path
         id="path158"
         style="fill:#333333;fill-opacity:1;fill-rule:nonzero;stroke:none"
         d="m 1871.23,3410.93 -8.65,98.8 10.59,0.92 8.65,-98.79 -10.59,-0.93" /><path
         id="path160"
         style="fill:#333333;fill-opacity:1;fill-rule:nonzero;stroke:none"
         d="m 2126.83,489.352 -8.66,98.789 10.61,0.929 8.64,-98.8 -10.59,-0.918" /><path
         id="path162"
         style="fill:#333333;fill-opacity:1;fill-rule:nonzero;stroke:none"
         d="m 1748.75,3394.34 -17.23,97.67 10.46,1.84 17.23,-97.67 -10.46,-1.84" /><path
         id="path164"
         style="fill:#333333;fill-opacity:1;fill-rule:nonzero;stroke:none"
         d="m 2258.02,506.148 -17.23,97.672 10.46,1.828 17.23,-97.656 -10.46,-1.844" /><path
         id="path166"
         style="fill:#333333;fill-opacity:1;fill-rule:nonzero;stroke:none"
         d="m 1628.17,3367.13 -25.67,95.8 10.27,2.75 25.67,-95.79 -10.27,-2.76" /><path
         id="path168"
         style="fill:#333333;fill-opacity:1;fill-rule:nonzero;stroke:none"
         d="m 2387.23,534.32 -25.68,95.801 10.27,2.75 25.67,-95.801 -10.26,-2.75" /><path
         id="path170"
         style="fill:#333333;fill-opacity:1;fill-rule:nonzero;stroke:none"
         d="m 1510.43,3329.52 -33.91,93.19 9.98,3.64 33.92,-93.19 -9.99,-3.64" /><path
         id="path172"
         style="fill:#333333;fill-opacity:1;fill-rule:nonzero;stroke:none"
         d="m 2513.5,573.648 -33.93,93.192 9.99,3.64 33.93,-93.191 -9.99,-3.641" /><path
         id="path174"
         style="fill:#333333;fill-opacity:1;fill-rule:nonzero;stroke:none"
         d="m 1396.42,3281.8 -41.91,89.88 9.63,4.5 41.91,-89.89 -9.63,-4.49" /><path
         id="path176"
         style="fill:#333333;fill-opacity:1;fill-rule:nonzero;stroke:none"
         d="m 2635.86,623.832 -41.92,89.879 9.62,4.488 41.93,-89.879 -9.63,-4.488" /><path
         id="path178"
         style="fill:#333333;fill-opacity:1;fill-rule:nonzero;stroke:none"
         d="m 1286.99,3224.31 -49.58,85.89 9.21,5.31 49.59,-85.88 -9.22,-5.32" /><path
         id="path180"
         style="fill:#333333;fill-opacity:1;fill-rule:nonzero;stroke:none"
         d="m 2753.37,684.488 -49.59,85.883 9.21,5.309 49.59,-85.879 -9.21,-5.313" /><path
         id="path182"
         style="fill:#333333;fill-opacity:1;fill-rule:nonzero;stroke:none"
         d="m 1183,3157.52 -56.87,81.24 8.71,6.08 56.88,-81.23 -8.72,-6.09" /><path
         id="path184"
         style="fill:#333333;fill-opacity:1;fill-rule:nonzero;stroke:none"
         d="m 2865.16,755.148 -56.9,81.243 8.72,6.097 56.9,-81.238 -8.72,-6.102" /><path
         id="path186"
         style="fill:#333333;fill-opacity:1;fill-rule:nonzero;stroke:none"
         d="m 1085.24,3081.9 -63.76,75.98 8.14,6.83 63.75,-75.98 -8.13,-6.83" /><path
         id="path188"
         style="fill:#333333;fill-opacity:1;fill-rule:nonzero;stroke:none"
         d="m 2970.36,835.289 -63.74,75.973 8.14,6.84 63.74,-75.973 -8.14,-6.84" /><path
         id="path190"
         style="fill:#333333;fill-opacity:1;fill-rule:nonzero;stroke:none"
         d="m 994.426,2998.06 -70.141,70.13 7.531,7.51 70.134,-70.13 -7.524,-7.51" /><path
         id="path192"
         style="fill:#333333;fill-opacity:1;fill-rule:nonzero;stroke:none"
         d="m 3068.18,924.301 -70.13,70.129 7.53,7.51 70.13,-70.131 -7.53,-7.508" /><path
         id="path194"
         style="fill:#333333;fill-opacity:1;fill-rule:nonzero;stroke:none"
         d="m 911.254,2906.63 -75.973,63.74 6.836,8.14 75.973,-63.75 -6.836,-8.13" /><path
         id="path196"
         style="fill:#333333;fill-opacity:1;fill-rule:nonzero;stroke:none"
         d="m 3157.87,1021.49 -75.98,63.75 6.84,8.14 75.98,-63.75 -6.84,-8.14" /><path
         id="path198"
         style="fill:#333333;fill-opacity:1;fill-rule:nonzero;stroke:none"
         d="m 836.391,2808.28 -81.246,56.89 6.089,8.7 81.246,-56.89 -6.089,-8.7" /><path
         id="path200"
         style="fill:#333333;fill-opacity:1;fill-rule:nonzero;stroke:none"
         d="m 3238.75,1126.13 -81.24,56.89 6.08,8.7 81.25,-56.89 -6.09,-8.7" /><path
         id="path202"
         style="fill:#333333;fill-opacity:1;fill-rule:nonzero;stroke:none"
         d="m 770.367,2703.79 -85.879,49.59 5.313,9.2 85.879,-49.59 -5.313,-9.2" /><path
         id="path204"
         style="fill:#333333;fill-opacity:1;fill-rule:nonzero;stroke:none"
         d="m 3310.2,1237.42 -85.89,49.59 5.31,9.2 85.89,-49.59 -5.31,-9.2" /><path
         id="path206"
         style="fill:#333333;fill-opacity:1;fill-rule:nonzero;stroke:none"
         d="m 713.711,2593.94 -89.879,41.92 4.484,9.63 89.875,-41.92 -4.48,-9.63" /><path
         id="path208"
         style="fill:#333333;fill-opacity:1;fill-rule:nonzero;stroke:none"
         d="m 3371.69,1354.51 -89.89,41.92 4.48,9.62 89.89,-41.91 -4.48,-9.63" /><path
         id="path210"
         style="fill:#333333;fill-opacity:1;fill-rule:nonzero;stroke:none"
         d="m 666.848,2479.58 -93.2,33.92 3.625,9.98 93.2,-33.91 -3.625,-9.99" /><path
         id="path212"
         style="fill:#333333;fill-opacity:1;fill-rule:nonzero;stroke:none"
         d="m 3422.71,1476.51 -93.18,33.93 3.62,9.98 93.19,-33.92 -3.63,-9.99" /><path
         id="path214"
         style="fill:#333333;fill-opacity:1;fill-rule:nonzero;stroke:none"
         d="m 630.113,2361.56 -95.789,25.67 2.742,10.27 95.786,-25.68 -2.739,-10.26" /><path
         id="path216"
         style="fill:#333333;fill-opacity:1;fill-rule:nonzero;stroke:none"
         d="m 3462.93,1602.51 -95.8,25.66 2.74,10.28 95.8,-25.68 -2.74,-10.26" /><path
         id="path218"
         style="fill:#333333;fill-opacity:1;fill-rule:nonzero;stroke:none"
         d="m 603.813,2240.79 -97.668,17.23 1.851,10.46 97.668,-17.23 -1.851,-10.46" /><path
         id="path220"
         style="fill:#333333;fill-opacity:1;fill-rule:nonzero;stroke:none"
         d="m 3492,1731.52 -97.66,17.23 1.85,10.46 97.67,-17.23 -1.86,-10.46" /><path
         id="path222"
         style="fill:#333333;fill-opacity:1;fill-rule:nonzero;stroke:none"
         d="m 588.148,2118.19 -98.8,8.64 0.91,10.59 98.805,-8.65 -0.915,-10.58" /><path
         id="path224"
         style="fill:#333333;fill-opacity:1;fill-rule:nonzero;stroke:none"
         d="m 3509.73,1862.59 -98.79,8.64 0.92,10.59 98.77,-8.66 -0.9,-10.57" /><path
         id="path226"
         style="fill:#333333;fill-opacity:1;fill-rule:nonzero;stroke:none"
         d="m 583.207,1994.69 h -99.176 v 10.62 h 99.176 v -10.62" /><path
         id="path228"
         style="fill:#333333;fill-opacity:1;fill-rule:nonzero;stroke:none"
         d="m 3515.95,1994.69 h -99.17 v 10.62 h 99.17 v -10.62" /><path
         id="path230"
         style="fill:#333333;fill-opacity:1;fill-rule:nonzero;stroke:none"
         d="m 490.258,1862.59 -0.91,10.57 98.8,8.66 0.915,-10.59 -98.805,-8.64" /><path
         id="path232"
         style="fill:#333333;fill-opacity:1;fill-rule:nonzero;stroke:none"
         d="m 3411.86,2118.19 -0.92,10.58 98.79,8.65 0.9,-10.59 -98.77,-8.64" /><path
         id="path234"
         style="fill:#333333;fill-opacity:1;fill-rule:nonzero;stroke:none"
         d="m 507.996,1731.52 -1.851,10.46 97.668,17.23 1.851,-10.46 -97.668,-17.23" /><path
         id="path236"
         style="fill:#333333;fill-opacity:1;fill-rule:nonzero;stroke:none"
         d="m 3396.19,2240.79 -1.85,10.46 97.66,17.23 1.86,-10.46 -97.67,-17.23" /><path
         id="path238"
         style="fill:#333333;fill-opacity:1;fill-rule:nonzero;stroke:none"
         d="m 537.066,1602.51 -2.742,10.26 95.789,25.68 2.739,-10.28 -95.786,-25.66" /><path
         id="path240"
         style="fill:#333333;fill-opacity:1;fill-rule:nonzero;stroke:none"
         d="m 3369.87,2361.56 -2.74,10.26 95.8,25.68 2.74,-10.27 -95.8,-25.67" /><path
         id="path242"
         style="fill:#333333;fill-opacity:1;fill-rule:nonzero;stroke:none"
         d="m 577.273,1476.51 -3.625,9.99 93.2,33.92 3.625,-9.98 -93.2,-33.93" /><path
         id="path244"
         style="fill:#333333;fill-opacity:1;fill-rule:nonzero;stroke:none"
         d="m 3333.15,2479.58 -3.62,9.99 93.18,33.91 3.63,-9.98 -93.19,-33.92" /><path
         id="path246"
         style="fill:#333333;fill-opacity:1;fill-rule:nonzero;stroke:none"
         d="m 628.316,1354.51 -4.484,9.63 89.879,41.91 4.48,-9.62 -89.875,-41.92" /><path
         id="path248"
         style="fill:#333333;fill-opacity:1;fill-rule:nonzero;stroke:none"
         d="m 3286.28,2593.94 -4.48,9.63 89.89,41.92 4.48,-9.63 -89.89,-41.92" /><path
         id="path250"
         style="fill:#333333;fill-opacity:1;fill-rule:nonzero;stroke:none"
         d="m 689.801,1237.42 -5.313,9.2 85.879,49.59 5.313,-9.2 -85.879,-49.59" /><path
         id="path252"
         style="fill:#333333;fill-opacity:1;fill-rule:nonzero;stroke:none"
         d="m 3229.62,2703.79 -5.31,9.2 85.89,49.59 5.31,-9.2 -85.89,-49.59" /><path
         id="path254"
         style="fill:#333333;fill-opacity:1;fill-rule:nonzero;stroke:none"
         d="m 761.234,1126.13 -6.089,8.7 81.246,56.89 6.089,-8.7 -81.246,-56.89" /><path
         id="path256"
         style="fill:#333333;fill-opacity:1;fill-rule:nonzero;stroke:none"
         d="m 3163.59,2808.28 -6.08,8.7 81.24,56.89 6.09,-8.7 -81.25,-56.89" /><path
         id="path258"
         style="fill:#333333;fill-opacity:1;fill-rule:nonzero;stroke:none"
         d="m 842.117,1021.49 -6.836,8.14 75.973,63.75 6.836,-8.14 -75.973,-63.75" /><path
         id="path260"
         style="fill:#333333;fill-opacity:1;fill-rule:nonzero;stroke:none"
         d="m 3088.73,2906.63 -6.84,8.13 75.98,63.75 6.84,-8.14 -75.98,-63.74" /><path
         id="path262"
         style="fill:#333333;fill-opacity:1;fill-rule:nonzero;stroke:none"
         d="m 931.816,924.301 -7.531,7.508 70.141,70.131 7.524,-7.51 -70.134,-70.129" /><path
         id="path264"
         style="fill:#333333;fill-opacity:1;fill-rule:nonzero;stroke:none"
         d="m 3005.58,2998.06 -7.53,7.51 70.13,70.13 7.53,-7.51 -70.13,-70.13" /><path
         id="path266"
         style="fill:#333333;fill-opacity:1;fill-rule:nonzero;stroke:none"
         d="m 1029.62,835.289 -8.14,6.84 63.76,75.973 8.13,-6.84 -63.75,-75.973" /><path
         id="path268"
         style="fill:#333333;fill-opacity:1;fill-rule:nonzero;stroke:none"
         d="m 2914.76,3081.9 -8.14,6.83 63.74,75.98 8.14,-6.83 -63.74,-75.98" /><path
         id="path270"
         style="fill:#333333;fill-opacity:1;fill-rule:nonzero;stroke:none"
         d="m 1134.84,755.16 -8.71,6.078 56.87,81.25 8.72,-6.09 -56.88,-81.238" /><path
         id="path272"
         style="fill:#333333;fill-opacity:1;fill-rule:nonzero;stroke:none"
         d="m 2816.98,3157.51 -8.72,6.1 56.9,81.25 8.72,-6.11 -56.9,-81.24" /><path
         id="path274"
         style="fill:#333333;fill-opacity:1;fill-rule:nonzero;stroke:none"
         d="m 1246.62,684.488 -9.21,5.313 49.58,85.879 9.22,-5.309 -49.59,-85.883" /><path
         id="path276"
         style="fill:#333333;fill-opacity:1;fill-rule:nonzero;stroke:none"
         d="m 2712.99,3224.31 -9.21,5.32 49.59,85.88 9.21,-5.31 -49.59,-85.89" /><path
         id="path278"
         style="fill:#333333;fill-opacity:1;fill-rule:nonzero;stroke:none"
         d="m 1364.14,623.832 -9.63,4.488 41.91,89.879 9.63,-4.488 -41.91,-89.879" /><path
         id="path280"
         style="fill:#333333;fill-opacity:1;fill-rule:nonzero;stroke:none"
         d="m 2603.56,3281.8 -9.62,4.49 41.92,89.89 9.63,-4.5 -41.93,-89.88" /><path
         id="path282"
         style="fill:#333333;fill-opacity:1;fill-rule:nonzero;stroke:none"
         d="m 1486.5,573.648 -9.98,3.641 33.91,93.191 9.99,-3.64 -33.92,-93.192" /><path
         id="path284"
         style="fill:#333333;fill-opacity:1;fill-rule:nonzero;stroke:none"
         d="m 2489.56,3329.52 -9.99,3.64 33.93,93.19 9.99,-3.64 -33.93,-93.19" /><path
         id="path286"
         style="fill:#333333;fill-opacity:1;fill-rule:nonzero;stroke:none"
         d="m 1612.77,534.32 -10.27,2.75 25.67,95.801 10.27,-2.75 -25.67,-95.801" /><path
         id="path288"
         style="fill:#333333;fill-opacity:1;fill-rule:nonzero;stroke:none"
         d="m 2371.82,3367.13 -10.27,2.76 25.68,95.79 10.26,-2.75 -25.67,-95.8" /><path
         id="path290"
         style="fill:#333333;fill-opacity:1;fill-rule:nonzero;stroke:none"
         d="m 1741.98,506.148 -10.46,1.844 17.23,97.656 10.46,-1.828 -17.23,-97.672" /><path
         id="path292"
         style="fill:#333333;fill-opacity:1;fill-rule:nonzero;stroke:none"
         d="m 2251.25,3394.34 -10.46,1.84 17.23,97.67 10.46,-1.84 -17.23,-97.67" /><path
         id="path294"
         style="fill:#333333;fill-opacity:1;fill-rule:nonzero;stroke:none"
         d="m 1873.17,489.352 -10.59,0.918 8.65,98.8 10.59,-0.929 -8.65,-98.789" /><path
         id="path296"
         style="fill:#333333;fill-opacity:1;fill-rule:nonzero;stroke:none"
         d="m 2128.78,3410.93 -10.61,0.93 8.66,98.79 10.59,-0.92 -8.64,-98.8" /><path
         id="path298"
         style="fill:#333333;fill-opacity:1;fill-rule:nonzero;stroke:none"
         d="m 1872.4,3211.13 h 62.39 l 140.49,-172.37 v 132.54 c 0,14.12 -1.59,22.93 -4.74,26.45 -4.19,4.74 -10.79,7.11 -19.84,7.11 h -7.96 v 6.27 h 80 v -6.27 h -8.13 c -9.73,0 -16.62,-2.94 -20.68,-8.81 -2.49,-3.62 -3.72,-11.87 -3.72,-24.75 v -193.73 h -6.11 l -151.53,185.09 v -141.52 c 0,-14.13 1.52,-22.95 4.58,-26.44 4.29,-4.75 10.9,-7.12 19.83,-7.12 h 8.13 v -6.28 h -80 v 6.28 h 7.98 c 9.82,0 16.76,2.93 20.83,8.81 2.49,3.61 3.74,11.86 3.74,24.75 v 159.82 c -6.67,7.79 -11.74,12.93 -15.17,15.43 -3.46,2.48 -8.51,4.8 -15.16,6.94 -3.3,1.02 -8.26,1.53 -14.93,1.53 v 6.27" /><path
         id="path300"
         style="fill:#333333;fill-opacity:1;fill-rule:nonzero;stroke:none"
         d="m 1062.34,2110.47 v -6.27 c -5.99,0 -10.85,-1.08 -14.57,-3.22 -3.73,-2.14 -7.29,-6.16 -10.68,-12.03 -2.25,-3.95 -5.82,-13.39 -10.68,-28.31 l -64.055,-185.25 h -6.785 l -52.367,146.95 -52.035,-146.95 h -6.105 l -68.305,190.85 c -5.094,14.23 -8.301,22.65 -9.656,25.25 -2.266,4.3 -5.34,7.48 -9.247,9.57 -3.902,2.1 -9.183,3.14 -15.839,3.14 v 6.27 h 85.078 v -6.27 h -4.067 c -5.992,0 -10.57,-1.35 -13.726,-4.06 -3.168,-2.71 -4.746,-5.99 -4.746,-9.83 0,-3.96 2.476,-13.06 7.457,-27.3 l 45.258,-128.98 38.128,109.66 -6.777,19.32 -5.422,15.43 c -2.371,5.65 -5.039,10.62 -7.969,14.91 -1.468,2.15 -3.281,3.95 -5.425,5.43 -2.825,2.04 -5.645,3.5 -8.465,4.41 -2.16,0.68 -5.555,1.01 -10.172,1.01 v 6.27 h 89.492 v -6.27 h -6.105 c -6.336,0 -10.957,-1.35 -13.907,-4.06 -2.929,-2.71 -4.398,-6.39 -4.398,-11.02 0,-5.77 2.551,-15.82 7.621,-30.17 l 44.067,-124.92 43.732,126.61 c 4.98,14.01 7.47,23.73 7.47,29.15 0,2.61 -0.83,5.03 -2.47,7.29 -1.63,2.26 -3.71,3.84 -6.18,4.75 -4.31,1.58 -9.89,2.37 -16.791,2.37 v 6.27 h 68.641" /><path
         id="path302"
         style="fill:#333333;fill-opacity:1;fill-rule:nonzero;stroke:none"
         d="m 3081.07,2097.93 v -90.85 h 50.52 c 13.11,0 21.88,1.98 26.28,5.94 5.86,5.19 9.16,14.35 9.83,27.46 h 6.27 v -80 h -6.27 c -1.59,11.18 -3.16,18.36 -4.74,21.52 -2.05,3.96 -5.37,7.06 -10.02,9.32 -4.62,2.26 -11.75,3.4 -21.35,3.4 h -50.52 v -75.77 c 0,-10.17 0.46,-16.35 1.36,-18.56 0.92,-2.2 2.49,-3.95 4.77,-5.25 2.25,-1.3 6.54,-1.96 12.86,-1.96 h 38.99 c 13.01,0 22.44,0.91 28.31,2.72 5.86,1.81 11.51,5.37 16.94,10.68 7.02,7 14.19,17.56 21.52,31.69 h 6.78 l -19.81,-57.63 h -177.13 v 6.28 h 8.14 c 5.42,0 10.57,1.29 15.43,3.89 3.6,1.81 6.07,4.52 7.37,8.15 1.3,3.61 1.94,11.01 1.94,22.19 v 149.32 c 0,14.58 -1.47,23.56 -4.4,26.96 -4.07,4.51 -10.85,6.77 -20.34,6.77 h -8.14 v 6.27 h 177.13 l 2.54,-50.33 h -6.61 c -2.38,12.08 -5.01,20.39 -7.89,24.91 -2.87,4.52 -7.14,7.97 -12.8,10.34 -4.51,1.69 -12.48,2.54 -23.89,2.54 h -63.07" /><path
         id="path304"
         style="fill:#333333;fill-opacity:1;fill-rule:nonzero;stroke:none"
         d="m 2062.63,1007.67 v -79.498 h -6.27 c -2.03,15.258 -5.69,27.41 -10.94,36.449 -5.26,9.027 -12.74,16.211 -22.46,21.52 -9.71,5.32 -19.77,7.968 -30.16,7.968 -11.76,0 -21.48,-3.589 -29.15,-10.757 -7.7,-7.18 -11.53,-15.34 -11.53,-24.493 0,-7.007 2.42,-13.39 7.28,-19.148 7.02,-8.481 23.67,-19.781 50,-33.91 21.48,-11.52 36.13,-20.36 43.99,-26.52 7.85,-6.16 13.9,-13.422 18.13,-21.781 4.24,-8.359 6.35,-17.121 6.35,-26.27 0,-17.398 -6.75,-32.398 -20.25,-45 -13.51,-12.601 -30.87,-18.898 -52.12,-18.898 -6.67,0 -12.94,0.508 -18.8,1.527 -3.52,0.563 -10.77,2.621 -21.79,6.18 -11.02,3.563 -17.99,5.34 -20.93,5.34 -2.83,0 -5.06,-0.84 -6.69,-2.539 -1.65,-1.692 -2.87,-5.192 -3.65,-10.508 h -6.27 v 78.809 h 6.27 c 2.94,-16.493 6.89,-28.84 11.87,-37.032 4.96,-8.187 12.56,-15 22.79,-20.418 10.22,-5.421 21.44,-8.132 33.64,-8.132 14.13,0 25.29,3.73 33.47,11.183 8.2,7.457 12.3,16.278 12.3,26.438 0,5.652 -1.56,11.351 -4.66,17.109 -3.11,5.77 -7.94,11.141 -14.5,16.121 -4.4,3.379 -16.44,10.578 -36.1,21.602 -19.66,11.008 -33.65,19.797 -41.95,26.359 -8.3,6.551 -14.59,13.777 -18.9,21.68 -4.29,7.91 -6.43,16.621 -6.43,26.109 0,16.5 6.32,30.711 18.98,42.629 12.65,11.921 28.75,17.881 48.3,17.881 12.2,0 25.14,-2.99 38.81,-8.99 6.34,-2.821 10.79,-4.231 13.41,-4.231 2.93,0 5.33,0.871 7.2,2.621 1.86,1.762 3.35,5.28 4.49,10.6 h 6.27" /><path
         id="path306"
         style="fill:#333333;fill-opacity:1;fill-rule:nonzero;stroke:none"
         d="m 2683.51,2850.41 21.6,-21.6 -11.05,-108.36 45.91,45.91 c 4.9,4.88 7.4,8.48 7.53,10.79 0.2,3.1 -1.28,6.19 -4.4,9.32 l -2.77,2.77 2.17,2.17 27.71,-27.71 -2.18,-2.16 -2.81,2.81 c -3.36,3.36 -6.76,4.75 -10.21,4.11 -2.12,-0.39 -5.41,-2.83 -9.86,-7.28 l -67.1,-67.1 -2.11,2.12 11.62,116.57 -49.01,-49.02 c -4.89,-4.88 -7.43,-8.46 -7.57,-10.73 -0.17,-3.13 1.31,-6.24 4.39,-9.33 l 2.82,-2.82 -2.16,-2.17 -27.72,27.71 2.19,2.16 2.75,-2.75 c 3.4,-3.41 6.82,-4.8 10.27,-4.17 2.11,0.39 5.41,2.82 9.86,7.28 l 55.34,55.34 c 0.4,5.03 0.43,8.55 0.12,10.6 -0.35,2.06 -1.31,4.62 -2.87,7.66 -0.78,1.5 -2.33,3.4 -4.63,5.71 l 2.17,2.17" /><path
         id="path308"
         style="fill:#333333;fill-opacity:1;fill-rule:nonzero;stroke:none"
         d="m 2792.69,2732.54 -31.47,-31.46 17.51,-17.5 c 4.53,-4.54 8.25,-6.88 11.14,-7.05 3.84,-0.23 8.15,1.8 12.91,6.11 l 2.18,-2.18 -27.71,-27.7 -2.16,2.16 c 3.32,4.43 5.25,7.47 5.81,9.11 0.66,2.07 0.57,4.3 -0.24,6.69 -0.82,2.39 -2.89,5.23 -6.23,8.57 l -17.5,17.5 -26.23,-26.25 c -3.51,-3.52 -5.5,-5.82 -5.94,-6.9 -0.46,-1.07 -0.53,-2.21 -0.19,-3.46 0.33,-1.23 1.59,-2.93 3.78,-5.12 l 13.51,-13.5 c 4.51,-4.51 8.07,-7.47 10.73,-8.88 2.67,-1.4 5.87,-2.13 9.58,-2.16 4.85,0 11,1.16 18.43,3.51 l 2.35,-2.35 -26.82,-13.09 -61.34,61.35 2.16,2.17 2.82,-2.81 c 1.88,-1.88 4.12,-3.21 6.69,-4 1.88,-0.62 3.67,-0.53 5.37,0.27 1.71,0.8 4.5,3.14 8.38,7.01 l 51.69,51.71 c 5.07,5.06 7.67,8.68 7.81,10.87 0.16,2.96 -1.4,6.1 -4.68,9.38 l -2.82,2.82 2.17,2.18 61.33,-61.34 -16.54,-18.32 -2.29,2.3 c 3.36,5.01 5.33,8.79 5.9,11.35 0.57,2.57 0.29,5.22 -0.85,8.02 -0.99,2.13 -3.45,5.2 -7.4,9.14 l -21.84,21.85" /><path
         id="path310"
         style="fill:#333333;fill-opacity:1;fill-rule:nonzero;stroke:none"
         d="m 1136.01,2660.78 21.59,21.61 108.36,-11.04 -45.9,45.9 c -4.89,4.89 -8.48,7.4 -10.8,7.52 -3.09,0.19 -6.19,-1.27 -9.32,-4.4 l -2.77,-2.76 -2.17,2.17 27.71,27.71 2.16,-2.18 -2.81,-2.81 c -3.36,-3.37 -4.74,-6.78 -4.11,-10.21 0.39,-2.12 2.83,-5.41 7.28,-9.87 l 67.1,-67.1 -2.11,-2.11 -116.58,11.63 49.02,-49.01 c 4.88,-4.9 8.46,-7.43 10.73,-7.58 3.13,-0.16 6.24,1.31 9.33,4.41 l 2.82,2.81 2.17,-2.17 -27.71,-27.71 -2.16,2.17 2.76,2.76 c 3.4,3.41 4.8,6.83 4.16,10.27 -0.38,2.12 -2.82,5.4 -7.27,9.86 l -55.35,55.36 c -5.02,0.39 -8.55,0.42 -10.6,0.09 -2.06,-0.34 -4.62,-1.29 -7.66,-2.85 -1.5,-0.78 -3.39,-2.33 -5.7,-4.64 l -2.17,2.17" /><path
         id="path312"
         style="fill:#333333;fill-opacity:1;fill-rule:nonzero;stroke:none"
         d="m 1336.94,2861.72 2.17,-2.17 c -2.07,-2.08 -3.39,-4.13 -3.94,-6.17 -0.54,-2.04 -0.38,-4.66 0.47,-7.87 0.6,-2.15 2.63,-6.65 6.12,-13.49 l 41.96,-86.36 -2.34,-2.34 -69.04,32.75 32.87,-68.91 -2.1,-2.11 -89.77,42.44 c -6.69,3.16 -10.7,4.96 -12.09,5.39 -2.27,0.7 -4.42,0.75 -6.5,0.12 -2.07,-0.62 -4.28,-2.09 -6.59,-4.4 l -2.17,2.17 29.47,29.47 2.18,-2.17 -1.41,-1.41 c -2.08,-2.07 -3.19,-4.13 -3.35,-6.17 -0.15,-2.03 0.44,-3.71 1.77,-5.04 1.37,-1.37 5.36,-3.66 12.03,-6.87 l 60.33,-29 -24.77,51.19 -9.03,4.34 -7.21,3.47 c -2.8,1.13 -5.42,1.93 -7.94,2.41 -1.25,0.22 -2.49,0.23 -3.75,-0.01 -1.68,-0.27 -3.17,-0.74 -4.47,-1.4 -0.97,-0.51 -2.27,-1.57 -3.88,-3.17 l -2.16,2.17 31,30.99 2.16,-2.17 -2.11,-2.11 c -2.18,-2.19 -3.32,-4.27 -3.4,-6.23 -0.08,-1.96 0.68,-3.73 2.28,-5.34 2.01,-2 6.37,-4.59 13.11,-7.81 l 58.51,-27.99 -28.7,58.99 c -3.14,6.58 -5.63,10.8 -7.51,12.68 -0.92,0.9 -2.02,1.45 -3.38,1.66 -1.36,0.23 -2.61,0.06 -3.79,-0.49 -2.03,-0.94 -4.25,-2.6 -6.64,-4.99 l -2.16,2.17 23.77,23.78" /><path
         id="path314"
         style="fill:#333333;fill-opacity:1;fill-rule:nonzero;stroke:none"
         d="m 2794.21,1216.13 -27.54,27.53 2.19,2.17 c 5.97,-4.58 11.45,-7.52 16.39,-8.83 4.96,-1.31 10.03,-1.21 15.24,0.32 5.2,1.54 9.6,4.1 13.21,7.69 4.07,4.07 6.18,8.67 6.37,13.83 0.17,5.13 -1.32,9.29 -4.5,12.47 -2.43,2.42 -5.48,3.79 -9.15,4.1 -5.35,0.52 -15.05,-1.35 -29.07,-5.57 -11.42,-3.44 -19.56,-5.47 -24.4,-6.05 -4.85,-0.58 -9.46,-0.17 -13.84,1.27 -4.35,1.42 -8.11,3.73 -11.29,6.89 -6.03,6.03 -8.87,13.57 -8.57,22.6 0.31,9.04 4.15,17.25 11.51,24.6 2.31,2.31 4.65,4.3 7.04,5.99 1.41,1.01 4.63,2.82 9.7,5.4 5.04,2.58 8.08,4.38 9.09,5.4 0.98,0.98 1.45,2.04 1.44,3.19 -0.01,1.16 -0.82,2.79 -2.39,4.91 l 2.18,2.17 27.29,-27.29 -2.16,-2.18 c -6.74,4.7 -12.38,7.61 -16.94,8.72 -4.56,1.11 -9.55,0.84 -14.97,-0.82 -5.42,-1.66 -10.24,-4.61 -14.47,-8.84 -4.9,-4.89 -7.47,-10.05 -7.72,-15.47 -0.25,-5.42 1.38,-9.89 4.9,-13.42 1.96,-1.94 4.48,-3.38 7.55,-4.3 3.08,-0.92 6.59,-1.11 10.58,-0.56 2.7,0.36 9.37,2.02 20,5.01 10.62,3.01 18.51,4.81 23.66,5.41 5.14,0.61 9.82,0.28 14.05,-0.97 4.22,-1.26 7.99,-3.52 11.27,-6.81 5.72,-5.72 8.44,-12.82 8.18,-21.33 -0.24,-8.52 -3.76,-16.15 -10.53,-22.93 -4.22,-4.23 -9.75,-7.67 -16.56,-10.33 -3.16,-1.21 -5.19,-2.27 -6.1,-3.17 -1.01,-1.01 -1.54,-2.14 -1.58,-3.4 -0.03,-1.25 0.66,-2.99 2.11,-5.23 l -2.17,-2.17" /><path
         id="path316"
         style="fill:#333333;fill-opacity:1;fill-rule:nonzero;stroke:none"
         d="m 2751.18,1185.43 -31.46,31.46 -17.49,-17.49 c -4.54,-4.54 -6.89,-8.26 -7.05,-11.15 -0.23,-3.84 1.8,-8.13 6.11,-12.92 l -2.18,-2.17 -27.7,27.71 2.17,2.17 c 4.42,-3.33 7.46,-5.27 9.1,-5.8 2.08,-0.68 4.3,-0.6 6.69,0.22 2.39,0.82 5.25,2.9 8.57,6.22 l 17.49,17.5 -26.23,26.23 c -3.52,3.53 -5.83,5.51 -6.9,5.96 -1.08,0.46 -2.24,0.52 -3.47,0.17 -1.23,-0.33 -2.94,-1.59 -5.13,-3.77 l -13.5,-13.5 c -4.52,-4.51 -7.45,-8.09 -8.86,-10.75 -1.41,-2.66 -2.13,-5.84 -2.19,-9.56 0,-4.86 1.18,-11 3.54,-18.43 l -2.36,-2.35 -13.07,26.82 61.33,61.34 2.17,-2.17 -2.82,-2.82 c -1.89,-1.88 -3.21,-4.1 -3.98,-6.69 -0.64,-1.87 -0.54,-3.67 0.26,-5.37 0.8,-1.7 3.13,-4.49 7.01,-8.36 l 51.72,-51.72 c 5.04,-5.05 8.66,-7.65 10.85,-7.8 2.97,-0.17 6.11,1.4 9.39,4.7 l 2.81,2.81 2.18,-2.18 -61.34,-61.34 -18.32,16.56 2.3,2.29 c 5,-3.37 8.8,-5.33 11.36,-5.9 2.56,-0.57 5.22,-0.29 8.01,0.85 2.15,0.98 5.2,3.44 9.16,7.39 l 21.83,21.84" /><path
         id="path318"
         style="fill:#333333;fill-opacity:1;fill-rule:nonzero;stroke:none"
         d="m 1255.32,1194.71 27.54,27.53 2.17,-2.17 c -4.58,-6 -7.53,-11.47 -8.84,-16.42 -1.32,-4.94 -1.2,-10.03 0.32,-15.23 1.53,-5.2 4.09,-9.6 7.69,-13.2 4.07,-4.07 8.69,-6.2 13.84,-6.36 5.14,-0.2 9.29,1.32 12.46,4.48 2.42,2.43 3.81,5.48 4.11,9.16 0.51,5.35 -1.35,15.05 -5.58,29.05 -3.44,11.43 -5.46,19.57 -6.04,24.43 -0.58,4.85 -0.17,9.46 1.26,13.81 1.42,4.38 3.72,8.14 6.9,11.29 6.03,6.04 13.56,8.89 22.6,8.59 9.03,-0.3 17.24,-4.15 24.58,-11.52 2.32,-2.29 4.32,-4.64 6.01,-7.03 1.02,-1.4 2.8,-4.65 5.39,-9.69 2.57,-5.05 4.38,-8.07 5.4,-9.1 0.98,-0.97 2.05,-1.46 3.21,-1.43 1.15,0.01 2.76,0.8 4.9,2.38 l 2.16,-2.19 -27.29,-27.28 -2.17,2.17 c 4.69,6.73 7.6,12.38 8.71,16.93 1.13,4.55 0.85,9.55 -0.81,14.96 -1.66,5.42 -4.62,10.26 -8.84,14.48 -4.89,4.89 -10.05,7.46 -15.47,7.71 -5.42,0.26 -9.9,-1.37 -13.41,-4.89 -1.96,-1.96 -3.4,-4.48 -4.31,-7.54 -0.93,-3.08 -1.11,-6.6 -0.56,-10.59 0.35,-2.71 2.02,-9.38 5.01,-20.01 2.99,-10.62 4.78,-18.5 5.4,-23.65 0.61,-5.16 0.29,-9.83 -0.97,-14.06 -1.25,-4.22 -3.52,-7.97 -6.81,-11.26 -5.7,-5.71 -12.81,-8.44 -21.34,-8.2 -8.5,0.27 -16.15,3.76 -22.91,10.55 -4.23,4.22 -7.68,9.74 -10.33,16.54 -1.22,3.18 -2.28,5.21 -3.17,6.12 -1.02,1.01 -2.16,1.54 -3.41,1.58 -1.26,0.04 -3,-0.67 -5.22,-2.12 l -2.18,2.18" /><path
         id="path320"
         style="fill:#333333;fill-opacity:1;fill-rule:nonzero;stroke:none"
         d="m 1132.86,1320.8 2.19,2.16 c 2.07,-2.07 4.12,-3.38 6.16,-3.93 2.03,-0.55 4.66,-0.39 7.87,0.47 2.16,0.58 6.64,2.63 13.5,6.12 l 86.34,41.95 2.35,-2.35 -32.75,-69.02 68.92,32.87 2.1,-2.11 -42.44,-89.75 c -3.16,-6.7 -4.96,-10.73 -5.39,-12.09 -0.7,-2.28 -0.75,-4.45 -0.12,-6.53 0.62,-2.07 2.1,-4.26 4.4,-6.57 l -2.16,-2.18 -29.47,29.47 2.15,2.18 1.41,-1.4 c 2.08,-2.08 4.13,-3.19 6.18,-3.35 2.03,-0.16 3.7,0.44 5.03,1.77 1.39,1.35 3.67,5.37 6.88,12.02 l 29,60.34 -51.19,-24.77 -4.33,-9.05 -3.47,-7.21 c -1.14,-2.78 -1.94,-5.42 -2.41,-7.93 -0.24,-1.24 -0.24,-2.5 0.01,-3.76 0.26,-1.68 0.72,-3.15 1.4,-4.45 0.51,-0.97 1.56,-2.27 3.16,-3.88 l -2.16,-2.16 -31,30.98 2.17,2.18 2.11,-2.11 c 2.19,-2.2 4.27,-3.33 6.22,-3.4 1.97,-0.09 3.74,0.67 5.34,2.27 2.01,2.01 4.6,6.37 7.82,13.1 l 27.99,58.51 -58.99,-28.69 c -6.56,-3.13 -10.8,-5.64 -12.68,-7.51 -0.9,-0.9 -1.45,-2.02 -1.66,-3.37 -0.22,-1.35 -0.05,-2.63 0.5,-3.79 0.94,-2.05 2.6,-4.26 4.98,-6.64 l -2.17,-2.17 -23.79,23.78" /><path
         id="path322"
         style="fill:#333333;fill-opacity:1;fill-rule:nonzero;stroke:none"
         d="m 3274.92,2000 136.99,-55.99 v 111.97 z" /><path
         id="path324"
         style="fill:#333333;fill-opacity:1;fill-rule:nonzero;stroke:none"
         d="m 724.18,2000 -136.985,55.99 v -111.98 z" /><path
         id="path326"
         style="fill:#333333;fill-opacity:1;fill-rule:nonzero;stroke:none"
         d="m 2000,720.199 -55.99,-136.988 h 111.97 z" /><path
         id="path328"
         style="fill:#333333;fill-opacity:1;fill-rule:nonzero;stroke:none"
         d="m 2000,3274.48 55.98,136.99 -111.97,-0.01 z" /><path
         id="path330"
         style="fill:#333333;fill-opacity:1;fill-rule:nonzero;stroke:none"
         d="m 1885.93,2149.65 105.84,-112.77 v 804.79 z m 114.06,-141.76 c -2.22,0 -4.4,0.9 -6,2.59 l -122.79,130.84 c -1.73,1.84 -2.51,4.37 -2.13,6.87 l 122.8,802.84 c 0.65,4.24 4.43,7.24 8.75,6.94 4.29,-0.32 7.59,-3.89 7.59,-8.19 v -933.67 c 0,-3.37 -2.06,-6.4 -5.19,-7.64 -0.98,-0.39 -2.01,-0.58 -3.03,-0.58" /><path
         id="path332"
         style="fill:#333333;fill-opacity:1;fill-rule:nonzero;stroke:none"
         d="m 2000,2949.78 v -933.67 l 122.79,130.83 z" /><path
         id="path334"
         style="fill:#333333;fill-opacity:1;fill-rule:nonzero;stroke:none"
         d="m 2008.21,2841.67 v -804.79 l 105.84,112.77 z m -8.22,-833.78 c -1.02,0 -2.04,0.19 -3.02,0.58 -3.13,1.24 -5.2,4.27 -5.2,7.64 v 933.67 c 0,4.3 3.31,7.87 7.6,8.19 4.28,0.36 8.1,-2.7 8.75,-6.94 l 122.79,-802.84 c 0.39,-2.5 -0.4,-5.03 -2.12,-6.87 l -122.8,-130.84 c -1.59,-1.69 -3.77,-2.59 -6,-2.59" /><path
         id="path336"
         style="fill:#333333;fill-opacity:1;fill-rule:nonzero;stroke:none"
         d="m 2008.21,1962.46 v -804.79 l 105.84,692.02 z M 2000,1041.34 c -0.21,0 -0.42,0.01 -0.63,0.02 -4.29,0.33 -7.6,3.89 -7.6,8.2 v 933.67 c 0,3.37 2.07,6.4 5.2,7.64 3.1,1.24 6.7,0.44 9.02,-2.01 l 122.8,-130.84 c 1.72,-1.84 2.51,-4.38 2.12,-6.87 l -122.79,-802.84 c -0.62,-4.03 -4.1,-6.97 -8.12,-6.97" /><path
         id="path338"
         style="fill:#333333;fill-opacity:1;fill-rule:nonzero;stroke:none"
         d="m 2000,1049.56 v 933.67 l -122.8,-130.84 z" /><path
         id="path340"
         style="fill:#333333;fill-opacity:1;fill-rule:nonzero;stroke:none"
         d="m 1885.93,1849.69 105.84,-692.02 v 804.79 z m 114.06,-808.35 c -4.03,0 -7.5,2.94 -8.12,6.97 l -122.8,802.84 c -0.38,2.49 0.4,5.03 2.13,6.87 l 122.79,130.84 c 2.33,2.45 5.9,3.24 9.03,2.01 3.13,-1.24 5.19,-4.27 5.19,-7.64 v -933.67 c 0,-4.31 -3.3,-7.87 -7.59,-8.2 -0.22,-0.01 -0.42,-0.02 -0.63,-0.02" /><path
         id="path342"
         style="fill:#333333;fill-opacity:1;fill-rule:nonzero;stroke:none"
         d="m 2037.2,2007.89 h 804.79 l -692,105.85 z m 912.91,-16.44 h -933.67 c -3.38,0 -6.41,2.06 -7.65,5.19 -1.25,3.14 -0.44,6.71 2.01,9.02 l 130.84,122.8 c 1.85,1.73 4.35,2.52 6.88,2.13 l 802.83,-122.8 c 4.25,-0.65 7.28,-4.46 6.95,-8.74 -0.32,-4.29 -3.9,-7.6 -8.19,-7.6" /><path
         id="path344"
         style="fill:#333333;fill-opacity:1;fill-rule:nonzero;stroke:none"
         d="m 2950.11,1999.67 h -933.67 l 130.84,-122.8 z" /><path
         id="path346"
         style="fill:#333333;fill-opacity:1;fill-rule:nonzero;stroke:none"
         d="m 2037.2,1991.45 112.79,-105.84 692,105.84 z m 110.08,-122.8 c -2.07,0 -4.11,0.79 -5.64,2.23 l -130.84,122.8 c -2.45,2.3 -3.26,5.88 -2.01,9.02 1.24,3.13 4.27,5.19 7.65,5.19 h 933.67 c 4.29,0 7.87,-3.31 8.19,-7.6 0.33,-4.28 -2.7,-8.1 -6.95,-8.75 l -802.83,-122.79 c -0.42,-0.07 -0.83,-0.1 -1.24,-0.1" /><path
         id="path348"
         style="fill:#333333;fill-opacity:1;fill-rule:nonzero;stroke:none"
         d="m 1158,1991.45 692.01,-105.84 112.77,105.84 z m 694.72,-122.8 c -0.41,0 -0.83,0.03 -1.25,0.1 l -802.83,122.79 c -4.25,0.65 -7.28,4.47 -6.95,8.75 0.33,4.29 3.9,7.6 8.2,7.6 h 933.66 c 3.37,0 6.41,-2.06 7.65,-5.19 1.24,-3.14 0.44,-6.72 -2.02,-9.02 l -130.83,-122.8 c -1.53,-1.44 -3.56,-2.23 -5.63,-2.23" /><path
         id="path350"
         style="fill:#333333;fill-opacity:1;fill-rule:nonzero;stroke:none"
         d="m 1049.88,1999.67 h 933.67 l -130.83,122.79 z" /><path
         id="path352"
         style="fill:#333333;fill-opacity:1;fill-rule:nonzero;stroke:none"
         d="m 1158,2007.89 h 804.78 l -112.77,105.85 z m 825.55,-16.44 h -933.66 c -4.3,0 -7.87,3.31 -8.2,7.6 -0.33,4.28 2.7,8.09 6.95,8.74 l 802.83,122.8 c 2.53,0.38 5.04,-0.4 6.88,-2.13 l 130.83,-122.8 c 2.46,-2.31 3.26,-5.88 2.02,-9.02 -1.24,-3.13 -4.28,-5.19 -7.65,-5.19" /><path
         id="path354"
         style="fill:#333333;fill-opacity:1;fill-rule:nonzero;stroke:none"
         d="m 2138.2,2264.08 15.01,-99.57 301.69,301.69 z m 9.31,-125.12 c -0.86,0 -1.72,0.14 -2.57,0.42 -2.94,0.97 -5.1,3.51 -5.56,6.58 l -18.24,120.94 c -0.48,3.22 0.98,6.41 3.71,8.16 l 384.72,245.53 c 3.54,2.27 8.2,1.48 10.83,-1.78 2.63,-3.27 2.37,-7.99 -0.6,-10.96 l -366.48,-366.48 c -1.56,-1.56 -3.66,-2.41 -5.81,-2.41" /><path
         id="path356"
         style="fill:#333333;fill-opacity:1;fill-rule:nonzero;stroke:none"
         d="m 2513.99,2513.67 -366.48,-366.49 120.95,-18.23 z" /><path
         id="path358"
         style="fill:#333333;fill-opacity:1;fill-rule:nonzero;stroke:none"
         d="m 2164.83,2152.89 99.57,-15.02 202.12,316.71 z m 103.63,-32.16 c -0.4,0 -0.82,0.03 -1.23,0.1 l -120.94,18.23 c -3.07,0.46 -5.62,2.61 -6.58,5.55 -0.97,2.95 -0.2,6.2 1.99,8.39 l 366.48,366.47 c 2.97,2.98 7.7,3.23 10.96,0.6 3.27,-2.62 4.03,-7.29 1.78,-10.83 l -245.54,-384.71 c -1.52,-2.39 -4.15,-3.8 -6.92,-3.8" /><path
         id="path360"
         style="fill:#333333;fill-opacity:1;fill-rule:nonzero;stroke:none"
         d="m 1850.14,1838.17 -301.7,-301.69 316.7,202.12 z M 1489.36,1480.8 c -2.43,0 -4.8,1.07 -6.42,3.07 -2.63,3.27 -2.37,8 0.6,10.95 l 366.48,366.49 c 2.2,2.2 5.42,2.97 8.38,2 2.95,-0.98 5.1,-3.52 5.56,-6.59 l 18.24,-120.94 c 0.48,-3.21 -0.97,-6.41 -3.71,-8.15 l -384.72,-245.54 c -1.36,-0.87 -2.9,-1.29 -4.41,-1.29" /><path
         id="path362"
         style="fill:#333333;fill-opacity:1;fill-rule:nonzero;stroke:none"
         d="m 1489.35,1489.02 366.48,366.48 -120.95,18.23 z" /><path
         id="path364"
         style="fill:#333333;fill-opacity:1;fill-rule:nonzero;stroke:none"
         d="m 1738.94,1864.81 -202.12,-316.7 301.69,301.68 z M 1489.35,1480.8 c -1.82,0 -3.64,0.6 -5.15,1.81 -3.27,2.62 -4.03,7.29 -1.78,10.83 l 245.54,384.71 c 1.74,2.74 4.9,4.23 8.15,3.72 l 120.96,-18.25 c 3.06,-0.46 5.61,-2.6 6.58,-5.55 0.96,-2.95 0.19,-6.2 -2,-8.38 L 1495.16,1483.2 c -1.6,-1.59 -3.7,-2.4 -5.81,-2.4" /><path
         id="path366"
         style="fill:#333333;fill-opacity:1;fill-rule:nonzero;stroke:none"
         d="m 1536.81,2454.58 202.12,-316.71 99.58,15.01 z m 198.07,-333.85 c -2.78,0 -5.41,1.4 -6.93,3.79 l -245.53,384.72 c -2.25,3.54 -1.49,8.21 1.78,10.83 3.27,2.63 7.99,2.38 10.96,-0.6 l 366.48,-366.48 c 2.19,-2.19 2.96,-5.43 2,-8.38 -0.97,-2.94 -3.52,-5.09 -6.58,-5.56 l -120.96,-18.23 c -0.4,-0.06 -0.82,-0.09 -1.22,-0.09" /><path
         id="path368"
         style="fill:#333333;fill-opacity:1;fill-rule:nonzero;stroke:none"
         d="m 1489.35,2513.66 366.48,-366.48 18.23,120.95 z" /><path
         id="path370"
         style="fill:#333333;fill-opacity:1;fill-rule:nonzero;stroke:none"
         d="m 1548.43,2466.2 301.7,-301.69 15.01,99.57 z m 307.4,-327.24 c -2.15,0 -4.25,0.84 -5.82,2.41 l -366.47,366.48 c -2.97,2.97 -3.23,7.69 -0.6,10.96 2.62,3.27 7.28,4.05 10.83,1.78 l 384.72,-245.53 c 2.74,-1.75 4.19,-4.94 3.71,-8.16 l -18.24,-120.94 c -0.47,-3.07 -2.62,-5.62 -5.56,-6.59 -0.85,-0.27 -1.72,-0.41 -2.57,-0.41" /><path
         id="path372"
         style="fill:#333333;fill-opacity:1;fill-rule:nonzero;stroke:none"
         d="m 2164.83,1849.8 301.69,-301.68 -202.12,316.69 z m 349.16,-369 c -2.11,0 -4.21,0.81 -5.81,2.41 l -366.48,366.48 c -2.19,2.19 -2.96,5.44 -1.99,8.39 0.96,2.94 3.51,5.09 6.58,5.55 l 120.94,18.24 c 3.23,0.51 6.4,-0.97 8.15,-3.71 l 245.54,-384.71 c 2.25,-3.54 1.49,-8.21 -1.78,-10.84 -1.51,-1.21 -3.34,-1.81 -5.15,-1.81" /><path
         id="path374"
         style="fill:#333333;fill-opacity:1;fill-rule:nonzero;stroke:none"
         d="m 2513.99,1489.02 -366.48,366.49 -18.23,-120.95 z" /><path
         id="path376"
         style="fill:#333333;fill-opacity:1;fill-rule:nonzero;stroke:none"
         d="m 2138.2,1738.61 316.7,-202.13 -301.69,301.69 z m 375.78,-257.81 c -1.51,0 -3.04,0.42 -4.41,1.29 l -384.72,245.54 c -2.73,1.74 -4.19,4.94 -3.71,8.15 l 18.24,120.95 c 0.46,3.06 2.62,5.61 5.56,6.58 2.96,0.96 6.19,0.2 8.38,-1.99 l 366.48,-366.49 c 2.97,-2.96 3.23,-7.69 0.6,-10.96 -1.62,-2 -3.99,-3.07 -6.42,-3.07" /></g></g></svg>